<?xml version="1.0" encoding="utf-8"?>
<!-- Generator: Adobe Illustrator 24.2.3, SVG Export Plug-In . SVG Version: 6.00 Build 0)  -->
<svg version="1.1" id="Isolation_Mode" xmlns="http://www.w3.org/2000/svg" xmlns:xlink="http://www.w3.org/1999/xlink" x="0px"
	 y="0px" viewBox="0 0 581.1 311.1" style="enable-background:new 0 0 581.1 311.1;" xml:space="preserve">
<style type="text/css">
	.st0{fill-rule:evenodd;clip-rule:evenodd;fill:#183761;}
	.st1{fill:#183761;}
	.st2{fill:#2688C6;}
</style>
<g>
	<g>
		<path class="st0" d="M206.1,60.4c-19,0-34.5,15.4-34.5,34.5c0,17.5,13.1,32,30,34.2c-0.3-5.7,0.6-12.6,1.5-13.9
			c1.4-2.2,2.2-5.7,0.2-8.4c-2-2.7-5.4-1.7-9.2-1.8c-3.8-0.1-3-8.3-3-8.3h15.6l14.1,0c0,0,0.8,8.1-3,8.3c-3.8,0.1-7.2-1-9.2,1.8
			c-2,2.7-1.2,6.3,0.2,8.4c0.9,1.3,1.8,8.3,1.5,14c17.1-2,30.4-16.6,30.4-34.2C240.6,75.8,225.1,60.4,206.1,60.4z M220.8,95H191
			V81.3c0-2.1,1.9-3.8,4.3-3.8h0.4l1.4,5.8l-0.3-5.8h2.7l0.9,5.5l0.1-5.5h13l1.6,7.4l-0.3-7.4h1.7c2.4,0,4.3,1.7,4.3,3.8V95z"/>
		<path class="st0" d="M289.6,60.4c-19,0-34.5,15.4-34.5,34.5c0,17.9,13.7,32.7,31.3,34.3l1.1-18.3c0-1.3,1-2.3,2.3-2.5v-5.7
			l-24.6-10H265v-7.4h2.2h1.1h1.9v-3c0-1.9,2.5-3.4,5.5-3.4h28c3,0,5.5,1.5,5.5,3.4v6c0,1.9-2.5,3.4-5.5,3.4h-28
			c-3,0-5.5-1.5-5.5-3.4v-0.5h-1.9v3.3l23,9.3h1.8v7.9c1.3,0.2,2.3,1.2,2.3,2.5l1,17.8c15.7-3.2,27.5-17.1,27.5-33.8
			C324.1,75.8,308.6,60.4,289.6,60.4z"/>
		<path class="st0" d="M372.9,60.4c-19,0-34.5,15.4-34.5,34.5c0,19,15.4,34.5,34.5,34.5c2.9,0,5.8-0.4,8.5-1.1l-3.4-18.9h-3.6
			c-0.4,4.5-2.8,8-5.8,8.3c0.3-0.5,0.6-1.3,0.9-2.4c0.4-1.6,0.6-3.7,0.7-6h-9.2v-4.8h-4.9v-6.9h14.1l1.7-3.6
			c-2.5-1.9-3.9-4.8-3.8-7.8c-0.5-0.4-0.6-1-0.4-1.5l6.7-14.1c0.3-0.6,1.1-0.9,1.8-0.5l14.8,7.1c0.7,0.3,1,1.1,0.7,1.7l-6.7,14.1
			c-0.2,0.5-0.7,0.7-1.2,0.7c-2.4,2-5.6,2.7-8.7,1.9l-1,2H387v6.9h-0.9l3.7,20.3c10.5-5.9,17.6-17.1,17.6-30
			C407.4,75.8,391.9,60.4,372.9,60.4z M350.8,97v1.4v5.3v1.1v0.4h-4.8v-1.5h1.9v-5.3h-1.9V97L350.8,97L350.8,97z M355.3,105.9h-3.8
			v-9.9h3.8V105.9z M391.8,75.9c-0.2,0.5-0.8,0.7-1.3,0.5L377,70c-0.5-0.2-0.7-0.8-0.5-1.3c0.2-0.5,0.8-0.7,1.3-0.5l13.4,6.4
			C391.8,74.9,392,75.4,391.8,75.9z"/>
	</g>
	<g>
		<path class="st1" d="M125.6,203.1l5,12.3l4.9-12.3h3.6l-7.8,19.3H130l-8-19.3H125.6z"/>
		<path class="st1" d="M145,209.2c1.2,0,2.3,0.3,3.3,0.8c1,0.6,1.8,1.3,2.3,2.3c0.5,1,0.8,2.1,0.8,3.4c0,1.3-0.3,2.5-0.8,3.5
			c-0.5,1-1.3,1.8-2.3,2.4c-1,0.6-2.1,0.9-3.4,0.9c-1.2,0-2.4-0.3-3.4-0.9c-1-0.6-1.8-1.4-2.3-2.4c-0.5-1-0.8-2.1-0.8-3.5
			c0-1.3,0.3-2.4,0.8-3.4c0.6-1,1.3-1.8,2.3-2.3C142.6,209.5,143.8,209.2,145,209.2z M141.8,215.8c0,1.3,0.3,2.3,0.9,3.1
			c0.6,0.8,1.3,1.1,2.3,1.1c1,0,1.8-0.4,2.4-1.1c0.6-0.7,0.9-1.8,0.9-3.1c0-1.3-0.3-2.3-0.9-3c-0.6-0.7-1.4-1.1-2.4-1.1
			c-0.9,0-1.7,0.4-2.3,1.1C142.1,213.6,141.8,214.6,141.8,215.8z"/>
		<path class="st1" d="M157.2,206.1h0.3v3.4h4v2.5h-4v5.9c0,0.6,0.2,1,0.5,1.4c0.3,0.4,0.8,0.5,1.3,0.5c0.7,0,1.6-0.3,2.5-0.8v2.7
			c-1.1,0.5-2.2,0.8-3.2,0.8c-1.3,0-2.4-0.4-3.1-1.2s-1.1-1.8-1.1-3.2V212h-1.8v-0.5L157.2,206.1z"/>
		<path class="st1" d="M170.2,209.2c0.4,0,0.8,0.1,1.2,0.3c0.4,0.2,0.9,0.5,1.4,1l-1.1,2.9c-0.9-0.7-1.6-1.1-2.2-1.1
			c-0.5,0-1,0.2-1.4,0.6c-0.5,0.4-0.8,0.9-1.1,1.5c-0.3,0.6-0.4,1.3-0.4,1.9v5.8h-3.1v-12.8h3.1v3.3h0.1c0.6-1.2,1.1-2.1,1.7-2.7
			C168.9,209.5,169.5,209.2,170.2,209.2z"/>
		<path class="st1" d="M179,209.2c1.7,0,3.1,0.6,4.1,1.8c1,1.2,1.5,2.9,1.5,5v0.5h-8.3c0.1,1.1,0.5,2,1.2,2.6
			c0.7,0.6,1.6,0.9,2.7,0.9c0.7,0,1.5-0.1,2.1-0.4c0.7-0.3,1.4-0.7,2.1-1.3v2.5c-1.4,1.1-3.1,1.6-5,1.6c-1.9,0-3.4-0.6-4.6-1.8
			c-1.2-1.2-1.8-2.8-1.8-4.8c0-1.9,0.5-3.5,1.6-4.8C175.8,209.8,177.3,209.2,179,209.2z M181.7,214.5c-0.1-0.9-0.3-1.7-0.8-2.2
			c-0.4-0.5-1-0.8-1.8-0.8c-0.8,0-1.4,0.3-1.9,0.8c-0.5,0.5-0.8,1.2-0.9,2.2H181.7z"/>
		<path class="st1" d="M200.3,209.2c1.7,0,3,0.6,4.1,1.8c1,1.2,1.5,2.8,1.5,4.8c0,1.3-0.2,2.4-0.7,3.4c-0.5,1-1.2,1.8-2.1,2.4
			c-0.9,0.6-1.9,0.8-3,0.8c-0.9,0-1.8-0.3-2.8-0.8v6.9h-3.1v-19.2h3.1v0.8C198.2,209.6,199.2,209.2,200.3,209.2z M197.3,219.3
			c0.8,0.5,1.5,0.7,2.2,0.7c1,0,1.8-0.4,2.3-1.1c0.6-0.8,0.9-1.7,0.9-2.9c0-1.3-0.3-2.3-0.8-3.1c-0.5-0.7-1.3-1.1-2.2-1.1
			c-0.4,0-0.7,0.1-1,0.2c-0.3,0.1-0.8,0.4-1.3,0.8V219.3z"/>
		<path class="st1" d="M215.1,209.2c0.4,0,0.8,0.1,1.2,0.3c0.4,0.2,0.9,0.5,1.4,1l-1.1,2.9c-0.9-0.7-1.6-1.1-2.2-1.1
			c-0.5,0-1,0.2-1.4,0.6c-0.5,0.4-0.8,0.9-1.1,1.5c-0.3,0.6-0.4,1.3-0.4,1.9v5.8h-3.1v-12.8h3.1v3.3h0.1c0.6-1.2,1.1-2.1,1.7-2.7
			C213.8,209.5,214.4,209.2,215.1,209.2z"/>
		<path class="st1" d="M224.5,209.2c1.2,0,2.3,0.3,3.3,0.8c1,0.6,1.8,1.3,2.3,2.3c0.5,1,0.8,2.1,0.8,3.4c0,1.3-0.3,2.5-0.8,3.5
			c-0.5,1-1.3,1.8-2.3,2.4c-1,0.6-2.1,0.9-3.4,0.9c-1.2,0-2.4-0.3-3.4-0.9c-1-0.6-1.8-1.4-2.3-2.4c-0.5-1-0.8-2.1-0.8-3.5
			c0-1.3,0.3-2.4,0.8-3.4c0.6-1,1.3-1.8,2.3-2.3C222.2,209.5,223.3,209.2,224.5,209.2z M221.3,215.8c0,1.3,0.3,2.3,0.9,3.1
			c0.6,0.8,1.3,1.1,2.3,1.1c1,0,1.8-0.4,2.4-1.1c0.6-0.7,0.9-1.8,0.9-3.1c0-1.3-0.3-2.3-0.9-3s-1.4-1.1-2.4-1.1
			c-0.9,0-1.7,0.4-2.3,1.1C221.6,213.6,221.3,214.6,221.3,215.8z"/>
		<path class="st1" d="M236.6,209.5v13.8c0,1.4-0.3,2.6-0.9,3.5c-0.6,0.9-1.5,1.5-2.6,1.9l-1.4-2.9c1.2-0.3,1.9-1.3,1.9-3v-13.3
			H236.6z M235.1,203.6c0.5,0,0.9,0.2,1.2,0.6c0.3,0.4,0.5,0.8,0.5,1.3c0,0.5-0.2,1-0.5,1.4c-0.3,0.4-0.7,0.6-1.2,0.6
			s-0.9-0.2-1.2-0.6c-0.3-0.4-0.5-0.8-0.5-1.3c0-0.5,0.2-1,0.5-1.3C234.2,203.7,234.6,203.6,235.1,203.6z"/>
		<path class="st1" d="M245.1,209.2c1.7,0,3.1,0.6,4.1,1.8c1,1.2,1.5,2.9,1.5,5v0.5h-8.3c0.1,1.1,0.5,2,1.2,2.6
			c0.7,0.6,1.6,0.9,2.7,0.9c0.7,0,1.5-0.1,2.1-0.4c0.7-0.3,1.4-0.7,2.1-1.3v2.5c-1.4,1.1-3.1,1.6-5,1.6c-1.9,0-3.4-0.6-4.6-1.8
			c-1.2-1.2-1.8-2.8-1.8-4.8c0-1.9,0.5-3.5,1.6-4.8C242,209.8,243.4,209.2,245.1,209.2z M247.8,214.5c-0.1-0.9-0.3-1.7-0.8-2.2
			c-0.4-0.5-1-0.8-1.8-0.8c-0.8,0-1.4,0.3-1.9,0.8c-0.5,0.5-0.8,1.2-0.9,2.2H247.8z"/>
		<path class="st1" d="M256.4,206.1h0.3v3.4h4v2.5h-4v5.9c0,0.6,0.2,1,0.5,1.4c0.3,0.4,0.8,0.5,1.3,0.5c0.7,0,1.6-0.3,2.5-0.8v2.7
			c-1.1,0.5-2.2,0.8-3.2,0.8c-1.3,0-2.4-0.4-3.1-1.2s-1.1-1.8-1.1-3.2V212h-1.8v-0.5L256.4,206.1z"/>
		<path class="st1" d="M264.3,218.5c0.7,0,1.2,0.3,1.6,0.8c0.4,0.5,0.6,1.3,0.6,2.2c0,1.2-0.4,2.3-1.1,3.2c-0.7,0.9-1.6,1.5-2.7,1.7
			v-0.7c0.8-0.7,1.2-1.7,1.2-2.9v-0.2l0-0.2c-0.9-0.2-1.4-0.8-1.4-1.9c0-0.5,0.2-1,0.5-1.4C263.3,218.7,263.7,218.5,264.3,218.5z"/>
		<path class="st1" d="M283.1,209.2c1.3,0,2.3,0.4,3,1.3c0.8,0.9,1.1,2.1,1.1,3.5v8.1h-3.1v-7.8c0-0.8-0.2-1.5-0.5-2
			c-0.4-0.5-0.9-0.7-1.5-0.7c-0.5,0-0.9,0.2-1.3,0.5c-0.4,0.3-0.9,0.8-1.4,1.5v8.5h-3.1v-12.8h3.1v1.8c0.6-0.7,1.2-1.3,1.8-1.6
			C281.7,209.4,282.3,209.2,283.1,209.2z"/>
		<path class="st1" d="M296,209.2c1.2,0,2.3,0.3,3.3,0.8c1,0.6,1.8,1.3,2.3,2.3c0.5,1,0.8,2.1,0.8,3.4c0,1.3-0.3,2.5-0.8,3.5
			c-0.5,1-1.3,1.8-2.3,2.4c-1,0.6-2.1,0.9-3.4,0.9c-1.2,0-2.4-0.3-3.4-0.9c-1-0.6-1.8-1.4-2.3-2.4c-0.5-1-0.8-2.1-0.8-3.5
			c0-1.3,0.3-2.4,0.8-3.4c0.6-1,1.3-1.8,2.3-2.3C293.7,209.5,294.8,209.2,296,209.2z M292.8,215.8c0,1.3,0.3,2.3,0.9,3.1
			c0.6,0.8,1.3,1.1,2.3,1.1c1,0,1.8-0.4,2.4-1.1c0.6-0.7,0.9-1.8,0.9-3.1c0-1.3-0.3-2.3-0.9-3s-1.4-1.1-2.4-1.1
			c-0.9,0-1.7,0.4-2.3,1.1C293.1,213.6,292.8,214.6,292.8,215.8z"/>
		<path class="st1" d="M308.2,206.1h0.3v3.4h4v2.5h-4v5.9c0,0.6,0.2,1,0.5,1.4c0.3,0.4,0.8,0.5,1.3,0.5c0.7,0,1.6-0.3,2.5-0.8v2.7
			c-1.1,0.5-2.2,0.8-3.2,0.8c-1.3,0-2.4-0.4-3.1-1.2c-0.7-0.8-1.1-1.8-1.1-3.2V212h-1.8v-0.5L308.2,206.1z"/>
		<path class="st1" d="M321.3,209.2c0.4,0,0.8,0.1,1.2,0.3c0.4,0.2,0.9,0.5,1.4,1l-1.1,2.9c-0.9-0.7-1.6-1.1-2.2-1.1
			c-0.5,0-1,0.2-1.4,0.6c-0.5,0.4-0.8,0.9-1.1,1.5c-0.3,0.6-0.4,1.3-0.4,1.9v5.8h-3.1v-12.8h3.1v3.3h0.1c0.6-1.2,1.1-2.1,1.7-2.7
			C320,209.5,320.6,209.2,321.3,209.2z"/>
		<path class="st1" d="M330.1,209.2c1.7,0,3.1,0.6,4.1,1.8c1,1.2,1.5,2.9,1.5,5v0.5h-8.3c0.1,1.1,0.5,2,1.2,2.6
			c0.7,0.6,1.6,0.9,2.7,0.9c0.7,0,1.5-0.1,2.1-0.4c0.7-0.3,1.4-0.7,2.1-1.3v2.5c-1.4,1.1-3.1,1.6-5,1.6c-1.9,0-3.4-0.6-4.6-1.8
			c-1.2-1.2-1.8-2.8-1.8-4.8c0-1.9,0.5-3.5,1.6-4.8C326.9,209.8,328.3,209.2,330.1,209.2z M332.8,214.5c-0.1-0.9-0.3-1.7-0.8-2.2
			c-0.4-0.5-1-0.8-1.8-0.8c-0.8,0-1.4,0.3-1.9,0.8c-0.5,0.5-0.8,1.2-0.9,2.2H332.8z"/>
		<path class="st1" d="M350.6,209.2c1.7,0,3.1,0.6,4.1,1.8c1,1.2,1.5,2.9,1.5,5v0.5h-8.3c0.1,1.1,0.5,2,1.2,2.6
			c0.7,0.6,1.6,0.9,2.7,0.9c0.7,0,1.5-0.1,2.1-0.4c0.7-0.3,1.4-0.7,2.1-1.3v2.5c-1.4,1.1-3.1,1.6-5,1.6c-1.9,0-3.4-0.6-4.6-1.8
			c-1.2-1.2-1.8-2.8-1.8-4.8c0-1.9,0.5-3.5,1.6-4.8C347.4,209.8,348.8,209.2,350.6,209.2z M353.3,214.5c-0.1-0.9-0.3-1.7-0.8-2.2
			c-0.4-0.5-1-0.8-1.8-0.8c-0.8,0-1.4,0.3-1.9,0.8c-0.5,0.5-0.8,1.2-0.9,2.2H353.3z"/>
		<path class="st1" d="M360.9,209.5l2.9,4l2.8-4h3.7l-4.7,6.3l5.1,6.5H367l-3.2-4.2l-3,4.2h-3.6l4.9-6.5l-4.9-6.3H360.9z"/>
		<path class="st1" d="M378.3,209.2c1.7,0,3,0.6,4.1,1.8c1,1.2,1.5,2.8,1.5,4.8c0,1.3-0.2,2.4-0.7,3.4c-0.5,1-1.2,1.8-2.1,2.4
			c-0.9,0.6-1.9,0.8-3,0.8c-0.9,0-1.8-0.3-2.8-0.8v6.9h-3.1v-19.2h3.1v0.8C376.3,209.6,377.3,209.2,378.3,209.2z M375.4,219.3
			c0.8,0.5,1.5,0.7,2.2,0.7c1,0,1.8-0.4,2.3-1.1c0.6-0.8,0.9-1.7,0.9-2.9c0-1.3-0.3-2.3-0.8-3.1c-0.5-0.7-1.3-1.1-2.2-1.1
			c-0.4,0-0.7,0.1-1,0.2c-0.3,0.1-0.8,0.4-1.3,0.8V219.3z"/>
		<path class="st1" d="M391.7,209.2c1.7,0,3.1,0.6,4.1,1.8c1,1.2,1.5,2.9,1.5,5v0.5H389c0.1,1.1,0.5,2,1.2,2.6
			c0.7,0.6,1.6,0.9,2.7,0.9c0.7,0,1.5-0.1,2.1-0.4c0.7-0.3,1.4-0.7,2.1-1.3v2.5c-1.4,1.1-3.1,1.6-5,1.6c-1.9,0-3.4-0.6-4.6-1.8
			c-1.2-1.2-1.8-2.8-1.8-4.8c0-1.9,0.5-3.5,1.6-4.8C388.5,209.8,390,209.2,391.7,209.2z M394.4,214.5c-0.1-0.9-0.3-1.7-0.8-2.2
			c-0.4-0.5-1-0.8-1.8-0.8c-0.8,0-1.4,0.3-1.9,0.8c-0.5,0.5-0.8,1.2-0.9,2.2H394.4z"/>
		<path class="st1" d="M406.5,209.2c0.4,0,0.8,0.1,1.2,0.3c0.4,0.2,0.9,0.5,1.4,1l-1.1,2.9c-0.9-0.7-1.6-1.1-2.2-1.1
			c-0.5,0-1,0.2-1.4,0.6c-0.5,0.4-0.8,0.9-1.1,1.5c-0.3,0.6-0.4,1.3-0.4,1.9v5.8h-3.1v-12.8h3.1v3.3h0.1c0.6-1.2,1.1-2.1,1.7-2.7
			C405.2,209.5,405.8,209.2,406.5,209.2z"/>
		<path class="st1" d="M413.8,206.1h0.3v3.4h4v2.5h-4v5.9c0,0.6,0.2,1,0.5,1.4c0.3,0.4,0.8,0.5,1.3,0.5c0.7,0,1.6-0.3,2.5-0.8v2.7
			c-1.1,0.5-2.2,0.8-3.2,0.8c-1.3,0-2.4-0.4-3.1-1.2c-0.7-0.8-1.1-1.8-1.1-3.2V212h-1.8v-0.5L413.8,206.1z"/>
		<path class="st1" d="M421.7,203.6c0.5,0,0.9,0.2,1.2,0.6c0.3,0.4,0.5,0.8,0.5,1.3c0,0.5-0.2,0.9-0.5,1.3c-0.3,0.4-0.8,0.6-1.2,0.6
			c-0.5,0-0.9-0.2-1.2-0.6c-0.3-0.4-0.5-0.8-0.5-1.3c0-0.5,0.2-1,0.5-1.3C420.9,203.7,421.3,203.6,421.7,203.6z M423.3,209.5v12.8
			h-3.1v-12.8H423.3z"/>
		<path class="st1" d="M430.3,209.2c0.6,0,1.3,0.1,1.8,0.2c0.6,0.2,1.2,0.4,1.8,0.8v2.7c-0.6-0.4-1.2-0.7-1.9-1
			c-0.7-0.3-1.3-0.4-1.8-0.4c-0.4,0-0.8,0.1-1,0.3c-0.3,0.2-0.4,0.4-0.4,0.8c0,0.2,0.1,0.4,0.3,0.6c0.2,0.2,0.8,0.5,1.7,1.1
			c1.3,0.7,2.3,1.4,2.8,2c0.5,0.6,0.8,1.4,0.8,2.2c0,1.2-0.4,2.2-1.2,2.9c-0.8,0.7-1.9,1.1-3.2,1.1c-0.8,0-1.6-0.1-2.4-0.3
			c-0.7-0.2-1.3-0.4-1.8-0.7v-2.8c1.5,0.9,2.8,1.4,3.8,1.4c0.5,0,1-0.1,1.3-0.3c0.3-0.2,0.5-0.5,0.5-0.8c0-0.2-0.1-0.4-0.2-0.5
			c-0.1-0.2-0.3-0.3-0.5-0.5c-0.2-0.2-1-0.6-2.2-1.2c-0.9-0.5-1.7-1-2.1-1.6c-0.5-0.6-0.7-1.3-0.7-2.1c0-1.1,0.4-2,1.2-2.7
			C427.9,209.6,429,209.2,430.3,209.2z"/>
		<path class="st1" d="M442.2,209.2c1.7,0,3.1,0.6,4.1,1.8c1,1.2,1.5,2.9,1.5,5v0.5h-8.3c0.1,1.1,0.5,2,1.2,2.6
			c0.7,0.6,1.6,0.9,2.7,0.9c0.7,0,1.5-0.1,2.1-0.4c0.7-0.3,1.4-0.7,2.1-1.3v2.5c-1.4,1.1-3.1,1.6-5,1.6c-1.9,0-3.4-0.6-4.6-1.8
			c-1.2-1.2-1.8-2.8-1.8-4.8c0-1.9,0.5-3.5,1.6-4.8C439,209.8,440.4,209.2,442.2,209.2z M444.9,214.5c-0.1-0.9-0.3-1.7-0.8-2.2
			c-0.4-0.5-1-0.8-1.8-0.8c-0.8,0-1.4,0.3-1.9,0.8c-0.5,0.5-0.8,1.2-0.9,2.2H444.9z"/>
		<path class="st1" d="M451.9,218.3c0.5,0,1,0.2,1.4,0.6s0.6,0.9,0.6,1.5c0,0.6-0.2,1.1-0.6,1.5c-0.4,0.4-0.8,0.6-1.4,0.6
			c-0.5,0-1-0.2-1.4-0.6c-0.4-0.4-0.6-0.9-0.6-1.5c0-0.6,0.2-1.1,0.6-1.5S451.3,218.3,451.9,218.3z"/>
	</g>
	<g>
		<path class="st2" d="M94.7,152.7H109c4.8,0,8.8,1.8,12.1,5.5c3.3,3.7,4.9,8.2,4.9,13.5c0,5.4-1.6,9.9-4.9,13.6
			c-3.2,3.6-7.3,5.4-12.1,5.4H94.7V152.7z M103.9,181.3h5.1c2.4,0,4.4-0.9,6-2.6c1.5-1.8,2.3-4.1,2.3-7c0-2.9-0.8-5.2-2.3-6.9
			c-1.5-1.8-3.5-2.7-6-2.7h-5.1V181.3z"/>
		<path class="st2" d="M129.1,152.7h13.6c3.5,0,6.5,1.2,8.9,3.7c2.4,2.5,3.6,5.7,3.6,9.5c0,3.9-1.2,7-3.6,9.5
			c-2.4,2.5-5.4,3.7-8.9,3.7h-4.7v11.4h-9V152.7z M138.1,170.1h4.7c1,0,1.8-0.4,2.5-1.1c0.7-0.8,1-1.7,1-2.9s-0.3-2.2-1-2.9
			c-0.7-0.7-1.5-1.1-2.5-1.1h-4.7V170.1z"/>
		<path class="st2" d="M188.7,185.8c-3.6,3.8-7.9,5.7-13,5.7c-5.2,0-9.5-1.9-13.1-5.7c-3.5-3.8-5.3-8.5-5.3-14.1
			c0-5.6,1.8-10.2,5.3-14c3.5-3.8,7.9-5.7,13.1-5.7c5.1,0,9.5,1.9,13,5.7c3.6,3.8,5.4,8.5,5.4,14
			C194.1,177.2,192.3,181.9,188.7,185.8z M169,179.1c1.8,1.9,4.1,2.9,6.8,2.9s4.9-1,6.8-2.9c1.8-2,2.7-4.4,2.7-7.4
			c0-3-0.9-5.5-2.7-7.4c-1.8-2-4.1-2.9-6.8-2.9c-2.7,0-5,1-6.8,2.9c-1.8,1.9-2.7,4.3-2.7,7.4C166.3,174.7,167.2,177.2,169,179.1z"/>
		<path class="st2" d="M209.6,152.7h13.6c3.5,0,6.5,1.2,8.9,3.7c2.4,2.5,3.6,5.7,3.6,9.5c0,3.9-1.2,7-3.6,9.5
			c-2.4,2.5-5.4,3.7-8.9,3.7h-4.7v11.4h-9V152.7z M218.6,170.1h4.7c1,0,1.8-0.4,2.5-1.1c0.7-0.8,1-1.7,1-2.9s-0.3-2.2-1-2.9
			c-0.7-0.7-1.5-1.1-2.5-1.1h-4.7V170.1z"/>
		<path class="st2" d="M262.5,180.4h-17.3c0.8,2.2,2.7,3.3,5.6,3.3c1.8,0,3.3-0.6,4.6-1.9l6,4.6c-2.4,3.4-6,5-10.8,5
			c-4.2,0-7.6-1.3-10.2-4c-2.5-2.7-3.8-6.1-3.8-10.2c0-4.1,1.3-7.5,3.8-10.2c2.5-2.7,5.7-4.1,9.6-4.1c3.7,0,6.8,1.4,9.3,4.1
			c2.4,2.7,3.7,6.1,3.7,10.2C262.9,178.3,262.7,179.5,262.5,180.4z M245.1,174.2h9.6c-0.6-2.5-2.2-3.8-4.7-3.8
			C247.5,170.4,245.8,171.7,245.1,174.2z"/>
		<path class="st2" d="M272.9,159.8c-0.9,1-2.1,1.5-3.4,1.5c-1.3,0-2.4-0.5-3.4-1.5c-0.9-1-1.4-2.3-1.4-3.7s0.5-2.6,1.4-3.6
			c1-1,2.1-1.5,3.4-1.5c1.3,0,2.4,0.5,3.4,1.5c1,1,1.5,2.2,1.5,3.6S273.9,158.8,272.9,159.8z M273.7,190.7h-8.3v-27.1h8.3V190.7z"/>
		<path class="st2" d="M292.8,162.8c2.8,0,5,1,6.7,3.1c1.7,2,2.5,4.9,2.5,8.6v16.2h-8.3v-15.1c0-1.4-0.3-2.4-1-3.2
			c-0.7-0.7-1.6-1.1-2.8-1.1c-1.3,0-2.3,0.4-3,1.3c-0.7,0.8-1.1,2.1-1.1,3.7v14.4h-8.3v-27.1h8.3v2.7
			C287.3,164,289.7,162.8,292.8,162.8z"/>
		<path class="st2" d="M321,163.6v8.6h-5.2v7.9c0,1.2,0.4,1.9,1.1,2.2s2.1,0.4,4.1,0.3v8.1c-4.9,0.7-8.4,0.2-10.5-1.5
			c-2-1.7-3-4.7-3-8.9v-8.1h-3.8v-8.6h3.8v-4.9l8.3-2.7v7.6H321z"/>
		<path class="st2" d="M340.1,178v-14.4h8.3v27.1h-8.3V188c-1.5,2.3-3.8,3.5-7,3.5c-2.8,0-5-1-6.7-3.1c-1.7-2-2.5-4.9-2.5-8.6v-16.2
			h8.3v15.1c0,1.4,0.3,2.4,1,3.2c0.7,0.7,1.6,1.1,2.8,1.1c1.3,0,2.3-0.4,3-1.3C339.7,180.8,340.1,179.6,340.1,178z"/>
		<path class="st2" d="M360.5,163.6v5c0.5-1.7,1.4-3.1,2.8-4.1c1.4-1,3-1.5,4.7-1.5v10c-1.9-0.3-3.6,0.1-5.2,1.1
			c-1.5,1.1-2.3,2.9-2.3,5.3v11.2h-8.3v-27.1H360.5z"/>
		<path class="st2" d="M395.2,180.4h-17.3c0.8,2.2,2.7,3.3,5.6,3.3c1.8,0,3.3-0.6,4.6-1.9l6,4.6c-2.4,3.4-6,5-10.8,5
			c-4.2,0-7.6-1.3-10.2-4c-2.5-2.7-3.8-6.1-3.8-10.2c0-4.1,1.3-7.5,3.8-10.2c2.5-2.7,5.7-4.1,9.6-4.1c3.7,0,6.8,1.4,9.3,4.1
			c2.4,2.7,3.7,6.1,3.7,10.2C395.5,178.3,395.4,179.5,395.2,180.4z M377.8,174.2h9.6c-0.6-2.5-2.2-3.8-4.7-3.8
			C380.1,170.4,378.5,171.7,377.8,174.2z"/>
		<path class="st2" d="M409.8,190.7v-38h9v38H409.8z"/>
		<path class="st2" d="M438.2,162.8c2.8,0,5,1,6.7,3.1c1.7,2,2.5,4.9,2.5,8.6v16.2h-8.3v-15.1c0-1.4-0.3-2.4-1-3.2
			c-0.7-0.7-1.6-1.1-2.8-1.1c-1.3,0-2.3,0.4-3,1.3c-0.7,0.8-1.1,2.1-1.1,3.7v14.4h-8.3v-27.1h8.3v2.7
			C432.7,164,435,162.8,438.2,162.8z"/>
		<path class="st2" d="M463.9,191.5c-3.8,0-7-1.4-9.5-4.1c-2.5-2.7-3.8-6.1-3.8-10.2c0-4,1.3-7.4,3.8-10.2c2.5-2.7,5.7-4.1,9.5-4.1
			c2.5,0,4.7,0.6,6.7,1.9c2,1.2,3.6,3,4.7,5.1l-7.1,4.4c-0.9-1.8-2.4-2.7-4.4-2.7c-1.4,0-2.6,0.5-3.5,1.5c-0.9,1-1.4,2.4-1.4,4
			c0,1.6,0.5,3,1.4,4c0.9,1,2.1,1.5,3.5,1.5c2,0,3.5-0.9,4.4-2.7l7.1,4.4c-1.1,2.2-2.7,3.9-4.7,5.2
			C468.6,190.8,466.4,191.5,463.9,191.5z"/>
		<path class="st2" d="M482.6,191.5c-1.5,0-2.7-0.6-3.7-1.7c-1-1.1-1.5-2.4-1.5-4c0-1.6,0.5-2.9,1.6-4c1-1.1,2.3-1.7,3.7-1.7
			c1.4,0,2.7,0.6,3.7,1.7c1,1.1,1.5,2.4,1.5,4c0,1.6-0.5,2.9-1.5,4C485.3,190.9,484,191.5,482.6,191.5z"/>
	</g>
</g>
</svg>
