<svg xmlns="http://www.w3.org/2000/svg" id="Isolation_Mode" x="0" y="0" version="1.1" viewBox="0 0 581.1 311.1" xml:space="preserve"><style>.st0{fill-rule:evenodd;clip-rule:evenodd}.st0,.st1{fill:#183761}.st2{fill:#2688c6}</style><path d="M206.1 60.4c-19 0-34.5 15.4-34.5 34.5 0 17.5 13.1 32 30 34.2-.3-5.7.6-12.6 1.5-13.9 1.4-2.2 2.2-5.7.2-8.4s-5.4-1.7-9.2-1.8c-3.8-.1-3-8.3-3-8.3h29.7s.8 8.1-3 8.3c-3.8.1-7.2-1-9.2 1.8-2 2.7-1.2 6.3.2 8.4.9 1.3 1.8 8.3 1.5 14 17.1-2 30.4-16.6 30.4-34.2-.1-19.2-15.6-34.6-34.6-34.6zM220.8 95H191V81.3c0-2.1 1.9-3.8 4.3-3.8h.4l1.4 5.8-.3-5.8h2.7l.9 5.5.1-5.5h13l1.6 7.4-.3-7.4h1.7c2.4 0 4.3 1.7 4.3 3.8V95zM289.6 60.4c-19 0-34.5 15.4-34.5 34.5 0 17.9 13.7 32.7 31.3 34.3l1.1-18.3c0-1.3 1-2.3 2.3-2.5v-5.7l-24.6-10h-.2v-7.4h5.2v-3c0-1.9 2.5-3.4 5.5-3.4h28c3 0 5.5 1.5 5.5 3.4v6c0 1.9-2.5 3.4-5.5 3.4h-28c-3 0-5.5-1.5-5.5-3.4v-.5h-1.9v3.3l23 9.3h1.8v7.9c1.3.2 2.3 1.2 2.3 2.5l1 17.8c15.7-3.2 27.5-17.1 27.5-33.8.2-19-15.3-34.4-34.3-34.4zM372.9 60.4c-19 0-34.5 15.4-34.5 34.5 0 19 15.4 34.5 34.5 34.5 2.9 0 5.8-.4 8.5-1.1l-3.4-18.9h-3.6c-.4 4.5-2.8 8-5.8 8.3.3-.5.6-1.3.9-2.4.4-1.6.6-3.7.7-6H361v-4.8h-4.9v-6.9h14.1l1.7-3.6c-2.5-1.9-3.9-4.8-3.8-7.8-.5-.4-.6-1-.4-1.5l6.7-14.1c.3-.6 1.1-.9 1.8-.5l14.8 7.1c.7.3 1 1.1.7 1.7L385 93c-.2.5-.7.7-1.2.7-2.4 2-5.6 2.7-8.7 1.9l-1 2H387v6.9h-.9l3.7 20.3c10.5-5.9 17.6-17.1 17.6-30 0-19-15.5-34.4-34.5-34.4zM350.8 97v8.2H346v-1.5h1.9v-5.3H346V97h4.8zm4.5 8.9h-3.8V96h3.8v9.9zm36.5-30c-.2.5-.8.7-1.3.5L377 70c-.5-.2-.7-.8-.5-1.3.2-.5.8-.7 1.3-.5l13.4 6.4c.6.3.8.8.6 1.3z" class="st0"/><g><path d="M125.6 203.1l5 12.3 4.9-12.3h3.6l-7.8 19.3H130l-8-19.3h3.6zM145 209.2c1.2 0 2.3.3 3.3.8 1 .6 1.8 1.3 2.3 2.3.5 1 .8 2.1.8 3.4 0 1.3-.3 2.5-.8 3.5s-1.3 1.8-2.3 2.4c-1 .6-2.1.9-3.4.9-1.2 0-2.4-.3-3.4-.9-1-.6-1.8-1.4-2.3-2.4-.5-1-.8-2.1-.8-3.5 0-1.3.3-2.4.8-3.4.6-1 1.3-1.8 2.3-2.3 1.1-.5 2.3-.8 3.5-.8zm-3.2 6.6c0 1.3.3 2.3.9 3.1.6.8 1.3 1.1 2.3 1.1 1 0 1.8-.4 2.4-1.1.6-.7.9-1.8.9-3.1s-.3-2.3-.9-3c-.6-.7-1.4-1.1-2.4-1.1-.9 0-1.7.4-2.3 1.1-.6.8-.9 1.8-.9 3zM157.2 206.1h.3v3.4h4v2.5h-4v5.9c0 .6.2 1 .5 1.4.3.4.8.5 1.3.5.7 0 1.6-.3 2.5-.8v2.7c-1.1.5-2.2.8-3.2.8-1.3 0-2.4-.4-3.1-1.2s-1.1-1.8-1.1-3.2V212h-1.8v-.5l4.6-5.4zM170.2 209.2c.4 0 .8.1 1.2.3.4.2.9.5 1.4 1l-1.1 2.9c-.9-.7-1.6-1.1-2.2-1.1-.5 0-1 .2-1.4.6-.5.4-.8.9-1.1 1.5-.3.6-.4 1.3-.4 1.9v5.8h-3.1v-12.8h3.1v3.3h.1c.6-1.2 1.1-2.1 1.7-2.7.5-.4 1.1-.7 1.8-.7zM179 209.2c1.7 0 3.1.6 4.1 1.8 1 1.2 1.5 2.9 1.5 5v.5h-8.3c.1 1.1.5 2 1.2 2.6.7.6 1.6.9 2.7.9.7 0 1.5-.1 2.1-.4.7-.3 1.4-.7 2.1-1.3v2.5c-1.4 1.1-3.1 1.6-5 1.6s-3.4-.6-4.6-1.8c-1.2-1.2-1.8-2.8-1.8-4.8 0-1.9.5-3.5 1.6-4.8 1.2-1.2 2.7-1.8 4.4-1.8zm2.7 5.3c-.1-.9-.3-1.7-.8-2.2-.4-.5-1-.8-1.8-.8s-1.4.3-1.9.8-.8 1.2-.9 2.2h5.4zM200.3 209.2c1.7 0 3 .6 4.1 1.8 1 1.2 1.5 2.8 1.5 4.8 0 1.3-.2 2.4-.7 3.4-.5 1-1.2 1.8-2.1 2.4-.9.6-1.9.8-3 .8-.9 0-1.8-.3-2.8-.8v6.9h-3.1v-19.2h3.1v.8c.9-.5 1.9-.9 3-.9zm-3 10.1c.8.5 1.5.7 2.2.7 1 0 1.8-.4 2.3-1.1.6-.8.9-1.7.9-2.9 0-1.3-.3-2.3-.8-3.1-.5-.7-1.3-1.1-2.2-1.1-.4 0-.7.1-1 .2-.3.1-.8.4-1.3.8v6.5zM215.1 209.2c.4 0 .8.1 1.2.3.4.2.9.5 1.4 1l-1.1 2.9c-.9-.7-1.6-1.1-2.2-1.1-.5 0-1 .2-1.4.6-.5.4-.8.9-1.1 1.5-.3.6-.4 1.3-.4 1.9v5.8h-3.1v-12.8h3.1v3.3h.1c.6-1.2 1.1-2.1 1.7-2.7.5-.4 1.1-.7 1.8-.7zM224.5 209.2c1.2 0 2.3.3 3.3.8 1 .6 1.8 1.3 2.3 2.3.5 1 .8 2.1.8 3.4 0 1.3-.3 2.5-.8 3.5s-1.3 1.8-2.3 2.4c-1 .6-2.1.9-3.4.9-1.2 0-2.4-.3-3.4-.9-1-.6-1.8-1.4-2.3-2.4-.5-1-.8-2.1-.8-3.5 0-1.3.3-2.4.8-3.4.6-1 1.3-1.8 2.3-2.3 1.2-.5 2.3-.8 3.5-.8zm-3.2 6.6c0 1.3.3 2.3.9 3.1.6.8 1.3 1.1 2.3 1.1 1 0 1.8-.4 2.4-1.1.6-.7.9-1.8.9-3.1s-.3-2.3-.9-3-1.4-1.1-2.4-1.1c-.9 0-1.7.4-2.3 1.1-.6.8-.9 1.8-.9 3zM236.6 209.5v13.8c0 1.4-.3 2.6-.9 3.5-.6.9-1.5 1.5-2.6 1.9l-1.4-2.9c1.2-.3 1.9-1.3 1.9-3v-13.3h3zm-1.5-5.9c.5 0 .9.2 1.2.6.3.4.5.8.5 1.3s-.2 1-.5 1.4c-.3.4-.7.6-1.2.6s-.9-.2-1.2-.6c-.3-.4-.5-.8-.5-1.3s.2-1 .5-1.3c.3-.6.7-.7 1.2-.7zM245.1 209.2c1.7 0 3.1.6 4.1 1.8 1 1.2 1.5 2.9 1.5 5v.5h-8.3c.1 1.1.5 2 1.2 2.6.7.6 1.6.9 2.7.9.7 0 1.5-.1 2.1-.4.7-.3 1.4-.7 2.1-1.3v2.5c-1.4 1.1-3.1 1.6-5 1.6s-3.4-.6-4.6-1.8c-1.2-1.2-1.8-2.8-1.8-4.8 0-1.9.5-3.5 1.6-4.8 1.3-1.2 2.7-1.8 4.4-1.8zm2.7 5.3c-.1-.9-.3-1.7-.8-2.2-.4-.5-1-.8-1.8-.8s-1.4.3-1.9.8-.8 1.2-.9 2.2h5.4zM256.4 206.1h.3v3.4h4v2.5h-4v5.9c0 .6.2 1 .5 1.4.3.4.8.5 1.3.5.7 0 1.6-.3 2.5-.8v2.7c-1.1.5-2.2.8-3.2.8-1.3 0-2.4-.4-3.1-1.2s-1.1-1.8-1.1-3.2V212h-1.8v-.5l4.6-5.4zM264.3 218.5c.7 0 1.2.3 1.6.8.4.5.6 1.3.6 2.2 0 1.2-.4 2.3-1.1 3.2-.7.9-1.6 1.5-2.7 1.7v-.7c.8-.7 1.2-1.7 1.2-2.9v-.4c-.9-.2-1.4-.8-1.4-1.9 0-.5.2-1 .5-1.4.3-.4.7-.6 1.3-.6zM283.1 209.2c1.3 0 2.3.4 3 1.3.8.9 1.1 2.1 1.1 3.5v8.1h-3.1v-7.8c0-.8-.2-1.5-.5-2-.4-.5-.9-.7-1.5-.7-.5 0-.9.2-1.3.5s-.9.8-1.4 1.5v8.5h-3.1v-12.8h3.1v1.8c.6-.7 1.2-1.3 1.8-1.6.5-.1 1.1-.3 1.9-.3zM296 209.2c1.2 0 2.3.3 3.3.8 1 .6 1.8 1.3 2.3 2.3.5 1 .8 2.1.8 3.4 0 1.3-.3 2.5-.8 3.5s-1.3 1.8-2.3 2.4c-1 .6-2.1.9-3.4.9-1.2 0-2.4-.3-3.4-.9-1-.6-1.8-1.4-2.3-2.4-.5-1-.8-2.1-.8-3.5 0-1.3.3-2.4.8-3.4.6-1 1.3-1.8 2.3-2.3 1.2-.5 2.3-.8 3.5-.8zm-3.2 6.6c0 1.3.3 2.3.9 3.1.6.8 1.3 1.1 2.3 1.1 1 0 1.8-.4 2.4-1.1.6-.7.9-1.8.9-3.1s-.3-2.3-.9-3-1.4-1.1-2.4-1.1c-.9 0-1.7.4-2.3 1.1-.6.8-.9 1.8-.9 3zM308.2 206.1h.3v3.4h4v2.5h-4v5.9c0 .6.2 1 .5 1.4.3.4.8.5 1.3.5.7 0 1.6-.3 2.5-.8v2.7c-1.1.5-2.2.8-3.2.8-1.3 0-2.4-.4-3.1-1.2-.7-.8-1.1-1.8-1.1-3.2V212h-1.8v-.5l4.6-5.4zM321.3 209.2c.4 0 .8.1 1.2.3.4.2.9.5 1.4 1l-1.1 2.9c-.9-.7-1.6-1.1-2.2-1.1-.5 0-1 .2-1.4.6-.5.4-.8.9-1.1 1.5-.3.6-.4 1.3-.4 1.9v5.8h-3.1v-12.8h3.1v3.3h.1c.6-1.2 1.1-2.1 1.7-2.7.5-.4 1.1-.7 1.8-.7zM330.1 209.2c1.7 0 3.1.6 4.1 1.8 1 1.2 1.5 2.9 1.5 5v.5h-8.3c.1 1.1.5 2 1.2 2.6.7.6 1.6.9 2.7.9.7 0 1.5-.1 2.1-.4.7-.3 1.4-.7 2.1-1.3v2.5c-1.4 1.1-3.1 1.6-5 1.6s-3.4-.6-4.6-1.8c-1.2-1.2-1.8-2.8-1.8-4.8 0-1.9.5-3.5 1.6-4.8 1.2-1.2 2.6-1.8 4.4-1.8zm2.7 5.3c-.1-.9-.3-1.7-.8-2.2-.4-.5-1-.8-1.8-.8s-1.4.3-1.9.8-.8 1.2-.9 2.2h5.4zM350.6 209.2c1.7 0 3.1.6 4.1 1.8 1 1.2 1.5 2.9 1.5 5v.5h-8.3c.1 1.1.5 2 1.2 2.6.7.6 1.6.9 2.7.9.7 0 1.5-.1 2.1-.4.7-.3 1.4-.7 2.1-1.3v2.5c-1.4 1.1-3.1 1.6-5 1.6s-3.4-.6-4.6-1.8c-1.2-1.2-1.8-2.8-1.8-4.8 0-1.9.5-3.5 1.6-4.8 1.2-1.2 2.6-1.8 4.4-1.8zm2.7 5.3c-.1-.9-.3-1.7-.8-2.2-.4-.5-1-.8-1.8-.8s-1.4.3-1.9.8-.8 1.2-.9 2.2h5.4zM360.9 209.5l2.9 4 2.8-4h3.7l-4.7 6.3 5.1 6.5H367l-3.2-4.2-3 4.2h-3.6l4.9-6.5-4.9-6.3h3.7zM378.3 209.2c1.7 0 3 .6 4.1 1.8 1 1.2 1.5 2.8 1.5 4.8 0 1.3-.2 2.4-.7 3.4-.5 1-1.2 1.8-2.1 2.4-.9.6-1.9.8-3 .8-.9 0-1.8-.3-2.8-.8v6.9h-3.1v-19.2h3.1v.8c1-.5 2-.9 3-.9zm-2.9 10.1c.8.5 1.5.7 2.2.7 1 0 1.8-.4 2.3-1.1.6-.8.9-1.7.9-2.9 0-1.3-.3-2.3-.8-3.1-.5-.7-1.3-1.1-2.2-1.1-.4 0-.7.1-1 .2-.3.1-.8.4-1.3.8v6.5zM391.7 209.2c1.7 0 3.1.6 4.1 1.8 1 1.2 1.5 2.9 1.5 5v.5H389c.1 1.1.5 2 1.2 2.6.7.6 1.6.9 2.7.9.7 0 1.5-.1 2.1-.4.7-.3 1.4-.7 2.1-1.3v2.5c-1.4 1.1-3.1 1.6-5 1.6s-3.4-.6-4.6-1.8c-1.2-1.2-1.8-2.8-1.8-4.8 0-1.9.5-3.5 1.6-4.8 1.2-1.2 2.7-1.8 4.4-1.8zm2.7 5.3c-.1-.9-.3-1.7-.8-2.2-.4-.5-1-.8-1.8-.8s-1.4.3-1.9.8-.8 1.2-.9 2.2h5.4zM406.5 209.2c.4 0 .8.1 1.2.3.4.2.9.5 1.4 1l-1.1 2.9c-.9-.7-1.6-1.1-2.2-1.1-.5 0-1 .2-1.4.6-.5.4-.8.9-1.1 1.5-.3.6-.4 1.3-.4 1.9v5.8h-3.1v-12.8h3.1v3.3h.1c.6-1.2 1.1-2.1 1.7-2.7.5-.4 1.1-.7 1.8-.7zM413.8 206.1h.3v3.4h4v2.5h-4v5.9c0 .6.2 1 .5 1.4.3.4.8.5 1.3.5.7 0 1.6-.3 2.5-.8v2.7c-1.1.5-2.2.8-3.2.8-1.3 0-2.4-.4-3.1-1.2-.7-.8-1.1-1.8-1.1-3.2V212h-1.8v-.5l4.6-5.4zM421.7 203.6c.5 0 .9.2 1.2.6.3.4.5.8.5 1.3s-.2.9-.5 1.3-.8.6-1.2.6c-.5 0-.9-.2-1.2-.6-.3-.4-.5-.8-.5-1.3s.2-1 .5-1.3c.4-.5.8-.6 1.2-.6zm1.6 5.9v12.8h-3.1v-12.8h3.1zM430.3 209.2c.6 0 1.3.1 1.8.2.6.2 1.2.4 1.8.8v2.7c-.6-.4-1.2-.7-1.9-1-.7-.3-1.3-.4-1.8-.4-.4 0-.8.1-1 .3-.3.2-.4.4-.4.8 0 .2.1.4.3.6.2.2.8.5 1.7 1.1 1.3.7 2.3 1.4 2.8 2 .5.6.8 1.4.8 2.2 0 1.2-.4 2.2-1.2 2.9-.8.7-1.9 1.1-3.2 1.1-.8 0-1.6-.1-2.4-.3-.7-.2-1.3-.4-1.8-.7v-2.8c1.5.9 2.8 1.4 3.8 1.4.5 0 1-.1 1.3-.3.3-.2.5-.5.5-.8 0-.2-.1-.4-.2-.5-.1-.2-.3-.3-.5-.5s-1-.6-2.2-1.2c-.9-.5-1.7-1-2.1-1.6-.5-.6-.7-1.3-.7-2.1 0-1.1.4-2 1.2-2.7 1-.8 2.1-1.2 3.4-1.2zM442.2 209.2c1.7 0 3.1.6 4.1 1.8 1 1.2 1.5 2.9 1.5 5v.5h-8.3c.1 1.1.5 2 1.2 2.6.7.6 1.6.9 2.7.9.7 0 1.5-.1 2.1-.4.7-.3 1.4-.7 2.1-1.3v2.5c-1.4 1.1-3.1 1.6-5 1.6s-3.4-.6-4.6-1.8c-1.2-1.2-1.8-2.8-1.8-4.8 0-1.9.5-3.5 1.6-4.8 1.2-1.2 2.6-1.8 4.4-1.8zm2.7 5.3c-.1-.9-.3-1.7-.8-2.2-.4-.5-1-.8-1.8-.8s-1.4.3-1.9.8-.8 1.2-.9 2.2h5.4zM451.9 218.3c.5 0 1 .2 1.4.6s.6.9.6 1.5-.2 1.1-.6 1.5c-.4.4-.8.6-1.4.6-.5 0-1-.2-1.4-.6-.4-.4-.6-.9-.6-1.5s.2-1.1.6-1.5.8-.6 1.4-.6z" class="st1"/></g><g><path d="M94.7 152.7H109c4.8 0 8.8 1.8 12.1 5.5 3.3 3.7 4.9 8.2 4.9 13.5 0 5.4-1.6 9.9-4.9 13.6-3.2 3.6-7.3 5.4-12.1 5.4H94.7v-38zm9.2 28.6h5.1c2.4 0 4.4-.9 6-2.6 1.5-1.8 2.3-4.1 2.3-7 0-2.9-.8-5.2-2.3-6.9-1.5-1.8-3.5-2.7-6-2.7h-5.1v19.2zM129.1 152.7h13.6c3.5 0 6.5 1.2 8.9 3.7 2.4 2.5 3.6 5.7 3.6 9.5 0 3.9-1.2 7-3.6 9.5-2.4 2.5-5.4 3.7-8.9 3.7H138v11.4h-9v-37.8zm9 17.4h4.7c1 0 1.8-.4 2.5-1.1.7-.8 1-1.7 1-2.9s-.3-2.2-1-2.9c-.7-.7-1.5-1.1-2.5-1.1h-4.7v8zM188.7 185.8c-3.6 3.8-7.9 5.7-13 5.7-5.2 0-9.5-1.9-13.1-5.7-3.5-3.8-5.3-8.5-5.3-14.1s1.8-10.2 5.3-14c3.5-3.8 7.9-5.7 13.1-5.7 5.1 0 9.5 1.9 13 5.7 3.6 3.8 5.4 8.5 5.4 14s-1.8 10.2-5.4 14.1zm-19.7-6.7c1.8 1.9 4.1 2.9 6.8 2.9s4.9-1 6.8-2.9c1.8-2 2.7-4.4 2.7-7.4s-.9-5.5-2.7-7.4c-1.8-2-4.1-2.9-6.8-2.9s-5 1-6.8 2.9c-1.8 1.9-2.7 4.3-2.7 7.4 0 3 .9 5.5 2.7 7.4zM209.6 152.7h13.6c3.5 0 6.5 1.2 8.9 3.7 2.4 2.5 3.6 5.7 3.6 9.5 0 3.9-1.2 7-3.6 9.5-2.4 2.5-5.4 3.7-8.9 3.7h-4.7v11.4h-9v-37.8zm9 17.4h4.7c1 0 1.8-.4 2.5-1.1.7-.8 1-1.7 1-2.9s-.3-2.2-1-2.9c-.7-.7-1.5-1.1-2.5-1.1h-4.7v8zM262.5 180.4h-17.3c.8 2.2 2.7 3.3 5.6 3.3 1.8 0 3.3-.6 4.6-1.9l6 4.6c-2.4 3.4-6 5-10.8 5-4.2 0-7.6-1.3-10.2-4-2.5-2.7-3.8-6.1-3.8-10.2s1.3-7.5 3.8-10.2c2.5-2.7 5.7-4.1 9.6-4.1 3.7 0 6.8 1.4 9.3 4.1 2.4 2.7 3.7 6.1 3.7 10.2-.1 1.1-.3 2.3-.5 3.2zm-17.4-6.2h9.6c-.6-2.5-2.2-3.8-4.7-3.8s-4.2 1.3-4.9 3.8zM272.9 159.8c-.9 1-2.1 1.5-3.4 1.5-1.3 0-2.4-.5-3.4-1.5-.9-1-1.4-2.3-1.4-3.7s.5-2.6 1.4-3.6c1-1 2.1-1.5 3.4-1.5 1.3 0 2.4.5 3.4 1.5s1.5 2.2 1.5 3.6-.5 2.7-1.5 3.7zm.8 30.9h-8.3v-27.1h8.3v27.1zM292.8 162.8c2.8 0 5 1 6.7 3.1 1.7 2 2.5 4.9 2.5 8.6v16.2h-8.3v-15.1c0-1.4-.3-2.4-1-3.2-.7-.7-1.6-1.1-2.8-1.1-1.3 0-2.3.4-3 1.3-.7.8-1.1 2.1-1.1 3.7v14.4h-8.3v-27.1h8.3v2.7c1.5-2.3 3.9-3.5 7-3.5zM321 163.6v8.6h-5.2v7.9c0 1.2.4 1.9 1.1 2.2s2.1.4 4.1.3v8.1c-4.9.7-8.4.2-10.5-1.5-2-1.7-3-4.7-3-8.9v-8.1h-3.8v-8.6h3.8v-4.9l8.3-2.7v7.6h5.2zM340.1 178v-14.4h8.3v27.1h-8.3V188c-1.5 2.3-3.8 3.5-7 3.5-2.8 0-5-1-6.7-3.1-1.7-2-2.5-4.9-2.5-8.6v-16.2h8.3v15.1c0 1.4.3 2.4 1 3.2.7.7 1.6 1.1 2.8 1.1 1.3 0 2.3-.4 3-1.3.7-.9 1.1-2.1 1.1-3.7zM360.5 163.6v5c.5-1.7 1.4-3.1 2.8-4.1 1.4-1 3-1.5 4.7-1.5v10c-1.9-.3-3.6.1-5.2 1.1-1.5 1.1-2.3 2.9-2.3 5.3v11.2h-8.3v-27.1h8.3zM395.2 180.4h-17.3c.8 2.2 2.7 3.3 5.6 3.3 1.8 0 3.3-.6 4.6-1.9l6 4.6c-2.4 3.4-6 5-10.8 5-4.2 0-7.6-1.3-10.2-4-2.5-2.7-3.8-6.1-3.8-10.2s1.3-7.5 3.8-10.2c2.5-2.7 5.7-4.1 9.6-4.1 3.7 0 6.8 1.4 9.3 4.1 2.4 2.7 3.7 6.1 3.7 10.2-.2 1.1-.3 2.3-.5 3.2zm-17.4-6.2h9.6c-.6-2.5-2.2-3.8-4.7-3.8-2.6 0-4.2 1.3-4.9 3.8zM409.8 190.7v-38h9v38h-9zM438.2 162.8c2.8 0 5 1 6.7 3.1 1.7 2 2.5 4.9 2.5 8.6v16.2h-8.3v-15.1c0-1.4-.3-2.4-1-3.2-.7-.7-1.6-1.1-2.8-1.1-1.3 0-2.3.4-3 1.3-.7.8-1.1 2.1-1.1 3.7v14.4h-8.3v-27.1h8.3v2.7c1.5-2.3 3.8-3.5 7-3.5zM463.9 191.5c-3.8 0-7-1.4-9.5-4.1-2.5-2.7-3.8-6.1-3.8-10.2 0-4 1.3-7.4 3.8-10.2 2.5-2.7 5.7-4.1 9.5-4.1 2.5 0 4.7.6 6.7 1.9 2 1.2 3.6 3 4.7 5.1l-7.1 4.4c-.9-1.8-2.4-2.7-4.4-2.7-1.4 0-2.6.5-3.5 1.5-.9 1-1.4 2.4-1.4 4s.5 3 1.4 4c.9 1 2.1 1.5 3.5 1.5 2 0 3.5-.9 4.4-2.7l7.1 4.4c-1.1 2.2-2.7 3.9-4.7 5.2-2 1.3-4.2 2-6.7 2zM482.6 191.5c-1.5 0-2.7-.6-3.7-1.7s-1.5-2.4-1.5-4 .5-2.9 1.6-4c1-1.1 2.3-1.7 3.7-1.7 1.4 0 2.7.6 3.7 1.7s1.5 2.4 1.5 4-.5 2.9-1.5 4c-1.1 1.1-2.4 1.7-3.8 1.7z" class="st2"/></g></svg>