<svg xmlns="http://www.w3.org/2000/svg" width="25.994" height="25.994" viewBox="0 0 25.994 25.994">
  <g id="phone-alt" transform="translate(0 -0.006)">
    <path id="Path_30" data-name="Path 30" d="M25.252,18.374l-5.686-2.437a1.218,1.218,0,0,0-1.422.35l-2.518,3.077a18.818,18.818,0,0,1-9-9L9.707,7.85a1.215,1.215,0,0,0,.35-1.422L7.62.743a1.227,1.227,0,0,0-1.4-.706L.944,1.255A1.218,1.218,0,0,0,0,2.443,23.554,23.554,0,0,0,23.557,26a1.218,1.218,0,0,0,1.188-.944l1.218-5.28a1.233,1.233,0,0,0-.711-1.4Z" transform="translate(0 0)" fill="#fff"/>
  </g>
</svg>
