<?xml version="1.0" encoding="utf-8"?>
<!-- Generator: Adobe Illustrator 24.2.3, SVG Export Plug-In . SVG Version: 6.00 Build 0)  -->
<svg version="1.1" id="layer" xmlns="http://www.w3.org/2000/svg" xmlns:xlink="http://www.w3.org/1999/xlink" x="0px" y="0px"
	 viewBox="0 0 652 283.5" style="enable-background:new 0 0 652 283.5;" xml:space="preserve">
<style type="text/css">
	.st0{fill:#006CB7;}
	.st1{fill:#FFFFFF;}
</style>
<g>
	<path d="M260.3,197.6V160H260c-1.3,1.2-6.3,1.3-8.4,1.3H248v0.3c4.2,2.6,3.6,6.4,3.6,11.1v15.9c0,8-7.8,13.6-14.1,13.6
		c-8.3,0-11.8-5.9-11.8-15.4V160h-0.3c-1.3,1.2-6.3,1.3-8.4,1.3h-3.6v0.3c4.2,2.6,3.6,6.4,3.6,11.1v15.9c0,14.5,6.3,21.4,17.6,21.4
		c6.7,0,13.6-2.4,17-8v6.9H264v-0.3C259.8,206.1,260.3,202.3,260.3,197.6"/>
	<path d="M314.1,183.4c0.4-13.3-8.5-23.3-21.5-23.3c-14.2,0-23.9,10.3-23.9,24.7c0,14.4,11.2,25.4,27.4,25.4c4.5,0,9.1-0.7,13.2-2.6
		l4.8-9.7h-0.3c-4.4,3.7-9.9,5.5-15.7,5.5c-10.8,0-18.9-7.4-19.1-20H314.1z M279.4,177.4c1.1-6.5,5.9-10.6,12.3-10.6
		c6.9,0,11.3,3.4,12.3,10.6H279.4z"/>
	<path d="M321.6,138.1c2.3,0,7-0.1,8.4-1.5h0.3v65.1c2.6,0.7,5.2,1.2,7.9,1.2c10.4,0,16.4-7.3,16.4-17.5c0-10-4.6-17.7-14.2-17.7
		c-3,0-5.4,0.8-8,2.3l5.1-8.8c2.2-0.8,4.5-1.1,6.7-1.1c10.8,0,20,9.4,20,23.5c0,16.1-10.9,26.6-28.2,26.6c-6.5,0-12.6-1.1-17.3-1.9
		V208c3.1-1.5,2.9-4.9,2.9-8.3v-47.4c0-4.8,0.6-11.4-3.5-14V138L321.6,138.1L321.6,138.1z"/>
	<path d="M415.9,183.4c0.4-13.3-8.5-23.3-21.5-23.3c-14.2,0-23.9,10.3-23.9,24.7c0,14.4,11.2,25.4,27.4,25.4c4.5,0,9.1-0.7,13.2-2.6
		l4.8-9.7h-0.3c-4.4,3.7-9.9,5.5-15.7,5.5c-10.8,0-18.9-7.4-19.1-20H415.9z M381.2,177.4c1.1-6.5,5.9-10.6,12.3-10.6
		c6.9,0,11.3,3.4,12.3,10.6H381.2z"/>
	<path d="M458.6,171.9h-0.3c-2.8-3.4-7.4-5.1-11.7-5.1c-9.3,0-15.9,7-15.9,16.9c0,11.9,9.3,19.7,19.9,19.7c4.9,0,10.2-2.1,14-5.1
		h0.3l-5,9.8c-4,1.6-8.4,2-12.6,2c-14.7,0-26.2-10.4-26.2-23.8c0-17.8,12.8-26.3,27.2-26.3c3.4,0,7,0.4,10.3,1.2L458.6,171.9
		L458.6,171.9z"/>
	<path d="M302.1,151.6v-10.3c-6.3,2.8-12.1,8.1-16,13.2v4C295.5,152.2,302.1,151.9,302.1,151.6"/>
	<path d="M223.6,218.9c-10.6,1.7-20.9-1.6-31.8-14.1c10.5-5.3,17-18.4,17-30.6v-1.5c-0.2-20.9-15.9-34.7-34.6-34.7
		s-35.3,14.4-35.4,35.4c0,0.1,0,1.3,0,1.4c0,20.5,15.2,35.7,33.8,35.7c2.7,0,5.2-0.4,7.8-1c12.2,11.4,23.1,16.3,32.5,15.2
		c4.5-0.5,9.2-2.3,12-6L223.6,218.9z M174.2,203.1c-14.4,0-24.5-16.3-24.5-30.1c0-0.1,0-1.4,0-1.6c0.2-13.4,8.8-26,24-26
		c15.9,0,24.1,15.1,24.3,29.3v1.5C198,191.5,188.5,203.1,174.2,203.1"/>
	<path d="M30.8,63.9h2.7c3.6,0,5.5-1.4,5.5-3.6c0-1.9-1.3-2.9-3.9-2.9h-2.9L30.8,63.9z M36.5,52.2c6.7,0,10.1,2.3,10.1,7
		c0,4.1-2.8,6.7-7.7,7.1c1.9,1.1,2.4,2.5,2.8,4.4l2.1,9.5h-7.4l-2-9c-0.4-1.6-1.3-2.1-3.4-2.1h-1.3l-2.3,11.2H20l5.9-28h10.6V52.2z"
		/>
	<path d="M60.3,50.8h7.6v0.9l-6.7,4.9h-4.8v-0.5L60.3,50.8z M63.4,66.8c0-2.3-1.4-3.8-3.6-3.8c-2.2,0-4.1,1.7-4.9,4.7h8.4
		C63.4,67.4,63.4,67.1,63.4,66.8 M54,71.7c0.3,3.1,2,4.5,5.3,4.5c2.2,0,4.7-0.5,7.1-1.6l-0.8,5.1c-2.5,0.8-5,1.2-7.7,1.2
		c-6.5,0-10.4-3.8-10.4-9.7c0-3.4,1.5-6.9,3.7-9.1c2.2-2.1,5.3-3.3,9.2-3.3c5.8,0,8.9,3.3,8.9,9c0,1.2-0.2,2.5-0.5,4H54V71.7z"/>
	<path d="M84.4,64.3c-2.8,0-5.2,3-5.2,7.2c0,2.4,1.5,4,3.6,4c2.9,0,5.5-3,5.5-6.9C88.3,66,86.7,64.3,84.4,64.3 M97.6,59.5l-4.4,20.8
		c-1.3,6-6.2,8.2-12.7,8.2c-2.7,0-5.4-0.5-8.2-1.5l1.3-5.4c1.8,1.2,4,1.8,6.5,1.8c3.8,0,6.8-1.8,7.6-7.4c-2.1,2.8-4.7,4.2-7.8,4.2
		c-4.9,0-8.1-3.5-8.1-9.1c0-3,0.8-5.7,2.4-7.9c2-2.8,5-4.4,8.6-4.4c3,0,5.4,1.4,6.8,4.1l0.8-3.5L97.6,59.5L97.6,59.5z"/>
</g>
<path d="M111,52.2l-0.7,3.7h-7.1l0.7-3.7H111z M109.5,59.5L105,80.3h-7.1l4.5-20.8H109.5z"/>
<g>
	<path d="M127.2,66.8c0-2.3-1.4-3.8-3.6-3.8s-4.1,1.7-4.9,4.7h8.4C127.1,67.4,127.2,67.1,127.2,66.8 M117.7,71.7
		c0.3,3.1,2,4.5,5.3,4.5c2.2,0,4.7-0.5,7.1-1.6l-0.8,5.1c-2.5,0.8-5,1.2-7.7,1.2c-6.5,0-10.4-3.8-10.4-9.7c0-3.4,1.5-6.9,3.7-9.1
		c2.2-2.1,5.3-3.3,9.3-3.3c5.8,0,8.9,3.3,8.9,9c0,1.2-0.2,2.5-0.5,4h-14.9V71.7z"/>
	<path d="M33.7,104.7c-2.8,0-5.2,3-5.2,7.2c0,2.4,1.5,4,3.6,4c2.9,0,5.5-3,5.5-7C37.6,106.4,36,104.7,33.7,104.7 M48.4,92.6l-5.9,28
		H36l0.8-3.5c-2,2.7-4.6,4.1-7.6,4.1c-4.9,0-8.1-3.5-8.1-9.3c0-7.6,4.6-12.7,11-12.7c3,0,5.4,1.4,6.8,4.1l2.3-10.8L48.4,92.6
		L48.4,92.6z"/>
	<path d="M58.5,99.9l-2.2,10.4c-0.2,0.7-0.2,1.4-0.2,2.1c0,2,1,3.1,2.7,3.1c2.6,0,4.7-2.3,5.6-6.8l1.9-8.8h7.3l-4.5,20.8h-6.5
		l0.8-3.5c-2.3,2.7-5,4-7.9,4c-4.3,0-6.8-2.6-6.8-7.2c0-1.4,0.2-3.3,0.8-5.8l1.7-8.3H58.5z"/>
	<path d="M101.2,104.7c-2.9,0-5.5,3-5.5,6.8c0,2.7,1.5,4.4,3.8,4.4c2.8,0,5.2-3,5.2-7C104.8,106.3,103.4,104.7,101.2,104.7
		 M99.4,92.6l-2.2,9.9c1.9-2.1,4.2-3.2,6.9-3.2c4.9,0,8.1,3.6,8.1,9.3c0,7.5-4.5,12.6-11,12.6c-3.3,0-5.7-1.6-7.3-4.8l-1,4.2h-6.5
		l5.9-28H99.4z"/>
	<path d="M126.4,111.1c-3.9,0-5.9,1.1-5.9,3.2c0,1.4,1.1,2.3,2.7,2.3c2.5,0,4.8-2,5.3-5.5C127.8,111.1,127.1,111.1,126.4,111.1
		 M125.9,91.2h6.5l3.5,5.3V97h-4.5l-2.5-3.2l-3.5,3.2h-5v-0.5L125.9,91.2z M134.4,115.4c-0.3,1.5-0.7,3.2-0.9,5.3h-6l0.4-3.2
		c-1.6,2.4-4.1,3.6-7.2,3.6c-4.3,0-7-2.5-7-6.2c0-4.6,4.3-7.6,12.2-7.6c1,0,2.2,0.1,3.4,0.2c0-0.2,0-0.5,0-0.7c0-2.1-1.4-3.2-4-3.2
		c-2.4,0-4.7,0.5-6.8,1.6l0.9-4.9c2.3-0.8,4.5-1.2,6.9-1.2c6.3,0,9.7,2.6,9.7,6.6c0,1-0.2,2.3-0.4,3.7L134.4,115.4z"/>
	<path d="M150.9,99.9h5.1l-1.1,5h-5.1l-1.5,7.2c-0.2,0.9-0.3,1.5-0.3,1.8c0,1.5,0.7,2.1,2.3,2.1c0.6,0,1.4-0.1,2.4-0.4l-1.1,5
		c-1.7,0.3-3,0.4-4,0.4c-4.3,0-6.8-2.3-6.8-6.3c0-0.7,0.1-1.4,0.2-2.1l1.7-7.8h-4.2l1.1-5h4.2l1.1-4.9l7.6-2L150.9,99.9z"/>
</g>
<path d="M168.8,92.6l-0.7,3.7H161l0.7-3.7H168.8z M167.3,99.9l-4.5,20.8h-7.1l4.5-20.8H167.3z"/>
<g>
	<path d="M202.3,120.7h-6.9l2.2-10.4c0.2-1.1,0.4-1.9,0.4-2.6c0-1.5-0.8-2.5-2.2-2.5c-1.1,0-2.1,0.5-2.8,1.4
		c-1.2,1.5-1.4,3.4-1.8,5.3l-1.9,8.8H182l2.2-10.4c0.2-1.1,0.3-2,0.3-2.8c0-1.4-0.8-2.2-2.2-2.2c-2.2,0-3.5,1.7-4.2,5.1l-2.2,10.3
		h-7.4l4.4-21h6.2l-0.8,3.8c2.3-2.8,4.5-4.1,7.3-4.1c3,0,4.9,1.4,5.7,4.1c2.3-2.8,4.4-4.1,7.4-4.1c3.9,0,6.3,2.5,6.3,6.5
		c0,1.3-0.2,2.2-0.3,2.8L202.3,120.7z"/>
	<path d="M224.1,107.2c0-2.3-1.4-3.8-3.6-3.8c-2.2,0-4.1,1.7-4.9,4.7h8.4C224,107.8,224.1,107.5,224.1,107.2 M214.6,112.1
		c0.3,3.1,2,4.5,5.3,4.5c2.2,0,4.7-0.5,7.1-1.6l-0.8,5.1c-2.5,0.8-5,1.2-7.7,1.2c-6.5,0-10.4-3.8-10.4-9.7c0-3.4,1.5-6.9,3.7-9.1
		c2.2-2.1,5.3-3.3,9.3-3.3c5.8,0,8.9,3.3,8.9,9c0,1.2-0.2,2.5-0.5,4h-14.9V112.1z"/>
	<path d="M253.6,120.7h-7.2l2.2-10.4c0.2-0.8,0.2-1.5,0.2-2.1c0-2-1-3.1-2.6-3.1c-2.9,0-4.8,2.3-5.7,6.8l-1.9,8.8h-7.3l4.4-21h6.5
		l-0.8,3.7c2.3-2.7,5-4,7.9-4c4.3,0,6.8,2.6,6.8,7.3c0,1.3-0.2,3.2-0.8,5.7L253.6,120.7z"/>
	<path d="M271.3,99.9h5.1l-1.1,5h-5.1l-1.5,7.2c-0.2,0.9-0.3,1.5-0.3,1.8c0,1.5,0.6,2.1,2.3,2.1c0.6,0,1.4-0.1,2.4-0.4l-1.1,5
		c-1.7,0.3-3,0.4-4,0.4c-4.3,0-6.8-2.3-6.8-6.3c0-0.7,0.1-1.4,0.2-2.1l1.7-7.8h-4.2l1.1-5h4.2l1.1-4.9l7.6-2L271.3,99.9z"/>
</g>
<rect x="487.4" y="121" class="st0" width="57.9" height="35.5"/>
<g>
	<path class="st1" d="M516.3,122.8c-0.4,0.8-1.4,1.9-3,3.9c-1.8,2.3-1.5,5.4-0.7,7.2c1,2.1,1.6,3.8,2,5.5c0.6,2.4,0.2,5.6,0.3,5.3
		h-1.6c0-3.9-1.2-7.6-4.2-9.2c-4.2-2.3-8.3,1.7-7,5.9c0.7,2.2,1.9,2.9,2.3,2.9c0,0-0.6-2.4,1.2-3.7c1.6-1.2,3.7-0.5,4.6,0.9
		c0.9,1.3,1,3.1,1,3.1h-3v2.2h6.1c0,0-0.2,3.2-3.5,2.8c0,0,0.4,2.5,3.5,1.2c0,0-0.2,2.6,1.9,3.9c2.1-1.3,1.9-3.9,1.9-3.9
		c3.1,1.3,3.5-1.2,3.5-1.2c-3.3,0.3-3.5-2.8-3.5-2.8h6.1v-2.1h-3c0,0,0.1-1.8,1-3.1c0.9-1.4,3-2.1,4.6-0.9c1.7,1.2,1.2,3.7,1.2,3.7
		c0.4,0,1.6-0.8,2.3-2.9c1.3-4.2-2.8-8.2-7-5.9c-3,1.6-4.2,5.3-4.2,9.2h-1.6c0,0.3-0.4-2.9,0.3-5.3c0.5-1.7,1-3.4,2-5.5
		c0.9-1.8,1.2-4.9-0.6-7.2C517.7,124.7,516.7,123.6,516.3,122.8"/>
</g>
<rect x="562.1" y="121" class="st0" width="57.9" height="35.5"/>
<g>
	<path class="st1" d="M591,122.8c-0.4,0.8-1.4,1.9-3,3.9c-1.9,2.3-1.5,5.4-0.6,7.2c1,2.1,1.6,3.8,2,5.5c0.6,2.4,0.2,5.6,0.3,5.3
		h-1.6c0-3.9-1.2-7.6-4.2-9.2c-4.2-2.3-8.3,1.7-7,5.9c0.7,2.2,1.9,2.9,2.3,2.9c0,0-0.6-2.4,1.2-3.7c1.6-1.2,3.7-0.5,4.6,0.9
		c0.9,1.3,1,3.1,1,3.1h-3v2.2h6.1c0,0-0.2,3.2-3.5,2.8c0,0,0.4,2.5,3.5,1.2c0,0-0.2,2.6,2,3.9c2.1-1.3,1.9-3.9,1.9-3.9
		c3.1,1.3,3.5-1.2,3.5-1.2c-3.3,0.3-3.5-2.8-3.5-2.8h6.1v-2.1h-3c0,0,0.2-1.8,1-3.1c0.9-1.4,3-2.1,4.6-0.9c1.7,1.2,1.2,3.7,1.2,3.7
		c0.3,0,1.6-0.8,2.3-2.9c1.3-4.2-2.8-8.2-7-5.9c-2.9,1.6-4.2,5.3-4.2,9.2h-1.6c0,0.3-0.4-2.9,0.3-5.3c0.4-1.7,1-3.4,2-5.5
		c0.9-1.8,1.2-4.9-0.7-7.2C592.4,124.7,591.5,123.6,591,122.8"/>
</g>
<rect x="487.4" y="173.3" class="st0" width="57.9" height="35.5"/>
<g>
	<path class="st1" d="M516.3,175.2c-0.4,0.8-1.4,1.9-3,3.9c-1.8,2.3-1.5,5.4-0.7,7.2c1,2.1,1.6,3.8,2,5.5c0.6,2.4,0.2,5.6,0.3,5.3
		h-1.6c0-3.9-1.2-7.6-4.2-9.2c-4.2-2.3-8.3,1.7-7,5.9c0.7,2.2,1.9,2.9,2.3,2.9c0,0-0.6-2.4,1.2-3.7c1.6-1.2,3.7-0.5,4.6,0.9
		c0.9,1.3,1,3.1,1,3.1h-3v2.2h6.1c0,0-0.2,3.1-3.5,2.8c0,0,0.4,2.5,3.5,1.2c0,0-0.2,2.6,1.9,3.9c2.1-1.3,1.9-3.9,1.9-3.9
		c3.1,1.3,3.5-1.2,3.5-1.2c-3.3,0.3-3.5-2.8-3.5-2.8h6.1V197h-3c0,0,0.1-1.8,1-3.1c0.9-1.4,3-2.1,4.6-0.9c1.7,1.2,1.2,3.7,1.2,3.7
		c0.4,0,1.6-0.7,2.3-2.9c1.3-4.2-2.8-8.2-7-5.9c-3,1.6-4.2,5.3-4.2,9.2h-1.6c0,0.3-0.4-2.9,0.3-5.3c0.5-1.7,1-3.4,2-5.5
		c0.9-1.8,1.2-4.9-0.6-7.2C517.7,177.1,516.7,176,516.3,175.2"/>
</g>
<rect x="562.1" y="173.3" class="st0" width="57.9" height="35.5"/>
<g>
	<path class="st1" d="M591,175.2c-0.4,0.8-1.4,1.9-3,3.9c-1.9,2.3-1.5,5.4-0.6,7.2c1,2.1,1.6,3.8,2,5.5c0.6,2.4,0.2,5.6,0.3,5.3
		h-1.6c0-3.9-1.2-7.6-4.2-9.2c-4.2-2.3-8.3,1.7-7,5.9c0.7,2.2,1.9,2.9,2.3,2.9c0,0-0.6-2.4,1.2-3.7c1.6-1.2,3.7-0.5,4.6,0.9
		c0.9,1.3,1,3.1,1,3.1h-3v2.2h6.1c0,0-0.2,3.1-3.5,2.8c0,0,0.4,2.5,3.5,1.2c0,0-0.2,2.6,2,3.9c2.1-1.3,1.9-3.9,1.9-3.9
		c3.1,1.3,3.5-1.2,3.5-1.2c-3.3,0.3-3.5-2.8-3.5-2.8h6.1V197h-3c0,0,0.2-1.8,1-3.1c0.9-1.4,3-2.1,4.6-0.9c1.7,1.2,1.2,3.7,1.2,3.7
		c0.3,0,1.6-0.7,2.3-2.9c1.3-4.2-2.8-8.2-7-5.9c-2.9,1.6-4.2,5.3-4.2,9.2h-1.6c0,0.3-0.4-2.9,0.3-5.3c0.4-1.7,1-3.4,2-5.5
		c0.9-1.8,1.2-4.9-0.7-7.2C592.4,177.1,591.5,176,591,175.2"/>
</g>
</svg>
